<svg width="39" height="39" viewBox="0 0 39 39" fill="none" xmlns="http://www.w3.org/2000/svg">
<path d="M13.8333 34H8.33333C6.38841 34 4.52315 33.2274 3.14788 31.8521C1.77262 30.4768 1 28.6116 1 26.6667V10.1667C1 8.22175 1.77262 6.35648 3.14788 4.98122C4.52315 3.60595 6.38841 2.83333 8.33333 2.83333H28.5C30.4449 2.83333 32.3102 3.60595 33.6854 4.98122C35.0607 6.35648 35.8333 8.22175 35.8333 10.1667V15.6667M12 1V4.66667M24.8333 1V4.66667M1 12H35.8333M31.25 26.0122L28.5 28.7622" stroke="#D9B346" stroke-width="2" stroke-linecap="round" stroke-linejoin="round"/>
<path d="M28.5002 37.6668C33.5628 37.6668 37.6668 33.5628 37.6668 28.5002C37.6668 23.4376 33.5628 19.3335 28.5002 19.3335C23.4376 19.3335 19.3335 23.4376 19.3335 28.5002C19.3335 33.5628 23.4376 37.6668 28.5002 37.6668Z" stroke="#D9B346" stroke-width="2" stroke-linecap="round" stroke-linejoin="round"/>
</svg>
