<svg width="29" height="29" viewBox="0 0 29 29" fill="none" xmlns="http://www.w3.org/2000/svg">
<g clip-path="url(#clip0_645_61)">
<path d="M9.26291 11.8976C9.18837 11.7513 9.04252 11.6553 8.87897 11.6446L4.9589 11.3832C4.75576 11.3632 4.56797 11.489 4.49386 11.6781L1.66786 18.9004C1.5919 19.0943 1.65388 19.3147 1.81978 19.4409C1.90273 19.5043 2.00244 19.536 2.10167 19.536C2.19996 19.536 2.29831 19.5053 2.38126 19.4428L4.72687 17.6839L6.09261 17.9569C6.31536 18.0012 6.53804 17.8791 6.61914 17.6662C7.35257 15.745 8.23552 13.9586 9.24243 12.3571C9.32959 12.2181 9.33751 12.0434 9.26291 11.8976ZM5.89127 16.9662L4.70498 16.7291C4.57545 16.7035 4.44029 16.7342 4.33408 16.8134L3.13238 17.7145L5.23707 12.3356L8.05051 12.5229C7.23975 13.8951 6.51566 15.3852 5.89127 16.9662Z" fill="#D9B346"/>
<path d="M17.9521 24.3782L17.6907 20.4577C17.6795 20.2936 17.5835 20.1478 17.4372 20.0732C17.2914 19.9987 17.1166 20.0061 16.9778 20.0937C15.3758 21.1006 13.5898 21.9836 11.6687 22.717C11.4563 22.7976 11.3332 23.0203 11.378 23.2435L11.651 24.6093L9.89208 26.9544C9.76719 27.1212 9.76768 27.3505 9.89394 27.5164C9.98387 27.6347 10.1223 27.7004 10.2648 27.7004C10.3217 27.7004 10.379 27.6897 10.4349 27.6691L17.6572 24.8432C17.8463 24.7692 17.9656 24.5809 17.9521 24.3782ZM11.6202 26.2034L12.5214 25.0017C12.6006 24.8959 12.6314 24.7608 12.6053 24.6308L12.3681 23.4449C13.9495 22.8205 15.4392 22.0964 16.8114 21.2857L16.9992 24.0986L11.6202 26.2034Z" fill="#D9B346"/>
<path d="M13.8903 14.9775H10.7507C10.5816 14.9775 10.4259 15.0693 10.3434 15.217L6.40284 22.2977C6.30034 22.4822 6.33479 22.7133 6.48671 22.8597C6.57572 22.9454 6.69264 22.9901 6.8101 22.9901C6.89305 22.9901 6.97643 22.9682 7.05097 22.9226L14.1316 18.6377C14.2709 18.5534 14.3562 18.4024 14.3562 18.2393V15.4435C14.3563 15.1863 14.1475 14.9775 13.8903 14.9775ZM13.4244 17.9769L8.07104 21.2167L11.0243 15.9099V15.9094H13.4244V17.9769Z" fill="#D9B346"/>
<path d="M28.3152 1.44655C28.296 1.21965 28.1162 1.03977 27.8893 1.02066C27.7346 1.00854 12.3903 -0.0627018 5.74854 17.3333C5.68285 17.5052 5.7243 17.699 5.85432 17.8291L8.06991 20.0447C8.17383 20.1486 8.3192 20.1961 8.46505 20.1765C8.60998 20.1556 8.73673 20.068 8.80755 19.9398L11.0274 15.9093H13.4261V17.9823L9.37138 20.5423C9.25162 20.6183 9.17288 20.7441 9.15704 20.8848C9.14121 21.0255 9.19057 21.1657 9.29077 21.266L11.5064 23.4815C11.5954 23.5706 11.7142 23.6181 11.8358 23.6181C11.8917 23.6181 11.9481 23.6083 12.0022 23.5873C29.399 16.9451 28.3282 1.60081 28.3152 1.44655ZM25.8707 9.71354C24.2357 13.7589 20.4941 19.2586 11.9508 22.6084L10.3619 21.0195L14.1408 18.6338C14.2759 18.548 14.3579 18.3994 14.3579 18.2395V15.4438C14.3579 15.1866 14.1492 14.9778 13.892 14.9778H10.7514C10.5814 14.9778 10.4252 15.0706 10.3432 15.2192L8.28976 18.9477L6.72744 17.3849C12.558 2.51079 24.9859 1.90225 27.4018 1.93627C27.4191 3.0229 27.3194 6.12893 25.8707 9.71354Z" fill="#D9B346"/>
<path d="M8.3602 21.5775C8.25907 21.4433 8.09787 21.378 7.93989 21.3948C7.95622 21.2364 7.89096 21.0756 7.75723 20.9745C7.05459 20.4433 6.14783 20.2667 5.26859 20.4894C4.33529 20.7266 3.57204 21.3631 3.17504 22.2367L0.420359 28.2974C0.339758 28.4745 0.377492 28.6828 0.51494 28.8197C0.60395 28.9092 0.723213 28.9563 0.844388 28.9563C0.909644 28.9563 0.975337 28.9423 1.03732 28.9143L7.098 26.1592C7.97118 25.7626 8.60769 24.9994 8.84485 24.0661C9.06803 23.1878 8.89143 22.2806 8.3602 21.5775ZM7.9418 23.8369C7.77497 24.4943 7.32675 25.0316 6.71264 25.3112L1.78282 27.5519L4.02359 22.6217C4.30269 22.0076 4.84041 21.5593 5.49789 21.3925C5.67078 21.3487 5.84454 21.3272 6.01601 21.3272C6.3063 21.3272 6.59004 21.3892 6.84866 21.5099L6.40509 22.2951C6.3021 22.4772 6.33333 22.706 6.48148 22.8538C6.62963 23.0024 6.85844 23.0331 7.04017 22.9301L7.82532 22.4861C8.01634 22.8971 8.0597 23.3718 7.9418 23.8369Z" fill="#D9B346"/>
<path d="M28.3144 1.44703C28.2952 1.22014 28.1154 1.04026 27.8885 1.02115C27.7067 1.00668 23.3873 0.679577 18.3075 3.01962C18.1691 3.08297 18.0708 3.21064 18.0437 3.3607C18.0167 3.51077 18.0652 3.66449 18.1728 3.77212L25.5629 11.1622C25.651 11.2503 25.7698 11.2987 25.8923 11.2987C25.9198 11.2987 25.9473 11.2963 25.9748 11.2917C26.1249 11.2647 26.252 11.1664 26.3159 11.0279C28.6564 5.94812 28.3293 1.62828 28.3144 1.44703ZM25.7413 10.022L19.313 3.59366C23.0318 2.02385 26.2884 1.91573 27.4015 1.93441C27.4202 3.04851 27.3153 6.29483 25.7413 10.022Z" fill="#D9B346"/>
<path d="M20.9579 8.37766C19.3908 6.81064 16.8417 6.81064 15.2746 8.37766C13.7076 9.94467 13.7076 12.4939 15.2746 14.0609C16.0579 14.8446 17.0872 15.236 18.116 15.236C19.1453 15.236 20.1741 14.8442 20.9579 14.0609C22.5249 12.4939 22.5249 9.94462 20.9579 8.37766ZM20.299 13.402C19.0955 14.6055 17.1371 14.6055 15.9335 13.402C14.73 12.1984 14.73 10.24 15.9335 9.0365C16.5351 8.43494 17.3258 8.13394 18.1161 8.13394C18.9064 8.13394 19.6971 8.43494 20.2991 9.0365C21.5026 10.24 21.5026 12.1984 20.299 13.402Z" fill="#D9B346"/>
<path d="M19.0404 12.146C18.5297 12.6577 17.6984 12.6572 17.1873 12.146C16.6766 11.6349 16.6766 10.8041 17.1873 10.2929C17.698 9.78224 18.5292 9.78181 19.0404 10.2929C19.2221 10.4751 19.5175 10.4751 19.6992 10.2929C19.8814 10.1108 19.8814 9.81627 19.6992 9.63409C18.8256 8.75999 17.4025 8.75999 16.5284 9.63409C15.6543 10.5082 15.6543 11.9308 16.5284 12.8049C16.9655 13.242 17.54 13.4605 18.1141 13.4605C18.6886 13.4605 19.2626 13.242 19.6992 12.8049C19.8814 12.6227 19.8814 12.3282 19.6992 12.146C19.5175 11.9639 19.2221 11.9639 19.0404 12.146Z" fill="#D9B346"/>
</g>
<defs>
<clipPath id="clip0_645_61">
<rect width="27.9594" height="27.9594" fill="white" transform="translate(0.378418 0.997314)"/>
</clipPath>
</defs>
</svg>
