<svg width="40" height="39" viewBox="0 0 40 39" fill="none" xmlns="http://www.w3.org/2000/svg">
<path fill-rule="evenodd" clip-rule="evenodd" d="M39.0697 6.83892L36.9123 6.33322L31.0818 12.0938L27.7793 8.75178L33.466 2.82356L32.9681 0.646853C31.7664 0.247378 30.5095 0.0359781 29.2424 0.0202257C27.8602 -0.000894867 26.4884 0.26106 25.2125 0.789768C23.9806 1.34387 22.867 2.12756 21.9321 3.09839C20.8915 4.07794 20.0673 5.26193 19.512 6.57507C18.4428 9.18845 18.4428 12.1133 19.512 14.7267C13.7457 20.3636 8.05395 26.0752 2.43807 31.86C1.85724 32.6158 1.58064 33.5585 1.65256 34.5067C1.70924 35.5265 2.1708 36.4823 2.93594 37.1644C3.27891 37.5354 3.68826 37.8432 4.14464 38.0658C4.61484 38.272 5.121 38.3901 5.63269 38.4149C6.50672 38.3984 7.34478 38.0686 7.99477 37.4887C12.2764 33.4843 20.4801 25.2585 25.1406 20.4378C26.4046 20.971 27.7627 21.2458 29.1346 21.2431C30.5155 21.242 31.8823 20.9659 33.154 20.4311C34.4258 19.8962 35.5767 19.1135 36.5389 18.1292C38.5152 16.1264 39.6191 13.4312 39.6118 10.6262C39.6438 9.34261 39.4605 8.06271 39.0697 6.83892ZM6.3214 35.5401C6.21494 35.634 6.08661 35.7001 5.948 35.7325C5.81164 35.7559 5.67224 35.7559 5.53588 35.7325C5.39291 35.7108 5.25674 35.6573 5.13759 35.5758C5.00974 35.5014 4.90163 35.3978 4.82228 35.2735C4.43506 34.8805 4.07272 34.1329 4.43506 33.7124C8.22434 29.7081 16.0269 21.8807 20.906 17.0958C21.1826 17.4586 21.4868 17.8049 21.8132 18.1292C22.1396 18.4672 22.4909 18.7806 22.8643 19.0664C18.1456 23.876 10.4509 31.6099 6.32417 35.5401H6.3214ZM37.0727 10.6262C37.0782 12.7287 36.254 14.7487 34.7715 16.2548C33.2921 17.6969 31.3024 18.5047 29.23 18.5047C27.1576 18.5047 25.1679 17.6969 23.6885 16.2548C22.6042 15.1304 21.8635 13.7233 21.5526 12.197C21.2417 10.6707 21.3733 9.08806 21.9321 7.63319C22.3041 6.64305 22.8811 5.74151 23.6258 4.98688C24.3705 4.23224 25.2663 3.64131 26.2553 3.2523C27.1943 2.86178 28.2024 2.66181 29.2203 2.66415H29.9228L24.8972 7.81184V9.7247L30.1386 14.9081H31.9641L37.0727 9.91708V10.6262ZM7.17053 15.6419H11.4051L13.3551 17.6125L15.2304 15.7601L13.391 13.8967V13.7785L13.5487 9.24648L12.9402 8.04545L5.02972 2.87303L3.39508 3.05442L1.09661 5.38778L0.914062 7.03405L5.99779 15.0538L7.17053 15.6447V15.6419ZM4.55676 5.65987L10.9571 9.84838L10.8492 12.9348H7.87307L3.74635 6.44315L4.55676 5.65987ZM24.2085 24.7885L26.0727 22.9388L34.6636 31.6924C35.3872 32.4481 35.7908 33.4512 35.7908 34.4943C35.7908 35.5374 35.3872 36.5406 34.6636 37.2963C34.1195 37.8513 33.4198 38.2308 32.6557 38.3852C31.8915 38.5396 31.0983 38.4618 30.3792 38.162C29.9203 37.9598 29.5087 37.665 29.1705 37.2963L20.48 28.4933L22.3581 26.6299L31.0209 35.4082C31.1374 35.5358 31.2823 35.6347 31.4441 35.6967C31.7624 35.8252 32.1187 35.8252 32.437 35.6967C32.5988 35.6346 32.7437 35.5358 32.8602 35.4082C32.9813 35.289 33.0756 35.1457 33.1368 34.9877C33.2003 34.8264 33.234 34.6551 33.2364 34.482C33.2336 34.3091 33.2009 34.138 33.1396 33.9763C33.0783 33.8183 32.9841 33.6749 32.863 33.5558L24.2085 24.7885Z" fill="#D9B346"/>
</svg>
